<svg id="Layer_1" data-name="Layer 1" xmlns="http://www.w3.org/2000/svg" viewBox="0 0 105 105.88"><defs><style>.cls-1,.cls-3{fill:none;}.cls-1{stroke:#000;}.cls-1,.cls-2,.cls-3{stroke-miterlimit:10;}.cls-2,.cls-4{fill:#ff2828;}.cls-2,.cls-3{stroke:#ff2828;}</style></defs><title>zalo1</title><path class="cls-1" d="M24.56,118.89" transform="translate(-12.5 -12.61)"/><path class="cls-1" d="M-30.5,17.5" transform="translate(-12.5 -12.61)"/><path id="_1" data-name="1" class="cls-2" d="M42.33,13.11H36.11a23.58,23.58,0,0,0-16,6.23A23.36,23.36,0,0,0,13,33.56V95.64c0,.09,0,.17,0,.26a25.07,25.07,0,0,0,8,15.88A24.82,24.82,0,0,0,36,118h58.8A22.75,22.75,0,0,0,117,94.89V91.33a55,55,0,0,1-14.22,9.78,57.34,57.34,0,0,1-24,5.33,72.71,72.71,0,0,1-36.45-8.89A27.69,27.69,0,0,1,29,99.33a12.17,12.17,0,0,0,3.56-11.55c-2.08-3.7-16.29-30-4.45-56A54.39,54.39,0,0,1,42.33,13.11Z" transform="translate(-12.5 -12.61)"/><path id="_2" data-name="2" class="cls-3" d="M41.89,13.11H93.45A22.48,22.48,0,0,1,110.66,21l.12.14a28.83,28.83,0,0,1,4.9,8.52A22,22,0,0,1,117,37.26V91.78" transform="translate(-12.5 -12.61)"/><path id="Z" class="cls-2" d="M37,47.78H57.44v3.55L43.22,69.11H57.44v2.67l-.88.89H37V70L51.22,52.22H37Z" transform="translate(-12.5 -12.61)"/><path class="cls-2" d="M74.33,54v1.78A10.28,10.28,0,0,0,69,54a10,10,0,0,0-1.92.1,9.13,9.13,0,0,0-7,5.18,9.58,9.58,0,0,0-.89,3.61,9.46,9.46,0,0,0,.55,3.61,9.3,9.3,0,0,0,8.73,6.18H69a10.38,10.38,0,0,0,5.33-1.78l.89,1.78h3.56V54ZM68.56,69.11a5.78,5.78,0,1,1,5.77-5.78A5.78,5.78,0,0,1,68.56,69.11Z" transform="translate(-12.5 -12.61)"/><g id="L"><polygon class="cls-4" points="70.52 60 69.89 58.64 69.89 35.67 73.78 35.67 73.78 60 70.52 60"/><path class="cls-4" d="M85.78,48.78V72.11H83.34l-.45-1V48.78h2.89m1-1H81.89V71.36l.81,1.75h4.08V47.78Z" transform="translate(-12.5 -12.61)"/></g><path class="cls-2" d="M99.67,53.11a10.23,10.23,0,1,0,10.22,10.22A10.23,10.23,0,0,0,99.67,53.11Zm0,16a5.78,5.78,0,1,1,5.77-5.78A5.78,5.78,0,0,1,99.67,69.11Z" transform="translate(-12.5 -12.61)"/></svg>